<svg width="16" height="16" viewBox="0 0 16 16" fill="none" xmlns="http://www.w3.org/2000/svg">
<path d="M8.37188 10.3282H7.62813L7.25001 9.05006L5.25626 8.43131L5.28751 9.66256L6.59688 11.1407L7.10001 10.6938L7.48126 15.1251L4.06876 11.3063L4.67501 9.48756L4.35001 5.57506L5.07188 5.26881C5.64688 7.49693 7.35626 8.28131 7.35626 8.28131L8.00001 7.37818L8.64376 8.28131C8.64376 8.28131 10.3531 7.49693 10.9281 5.26881L11.65 5.57506L11.325 9.48756L11.9313 11.3063L8.51876 15.1251L8.90001 10.6938L9.40313 11.1407L10.7125 9.66256L10.7438 8.43131L8.75001 9.05006L8.37188 10.3282ZM12.3031 12.3532L9.96563 14.7501L11.7406 13.8751L11.9313 14.6251L13.5438 13.5001L12.3031 12.3532ZM3.69688 12.3532L6.03438 14.7501L4.25938 13.8751L4.06876 14.6251L2.45626 13.5001L3.69688 12.3532ZM12.025 8.67506L15.1875 6.85318C15.8125 0.968806 13.5125 0.584431 11.2656 1.83443C11.2656 1.83443 14.8313 0.968806 13.3313 5.25318L12.2125 5.71256L12.025 8.67506ZM3.97501 8.67506L0.811256 6.85318C0.187506 0.968806 2.48782 0.584431 4.73438 1.83443C4.73438 1.83443 1.16751 0.968806 2.66813 5.25318L3.78751 5.71256L3.97501 8.67506ZM8.00001 3.93443L10.1094 5.24068C10.1094 5.24068 10.0094 6.33443 8.78438 7.26256L8.00001 5.64693L7.21563 7.26256C5.99063 6.33443 5.89063 5.24068 5.89063 5.24068L8.00001 3.93443Z" fill="white"/>
</svg>
