<svg width="16" height="16" viewBox="0 0 16 16" fill="none" xmlns="http://www.w3.org/2000/svg">
<path d="M7.92848 0.636373C7.65379 0.638717 7.38323 0.661998 7.11941 0.708498C5.66473 0.964998 4.32495 1.5259 3.33113 2.33553C2.33729 3.14515 1.68826 4.19147 1.57126 5.46219L1.57113 5.46344L1.57101 5.46469C1.30695 8.08609 2.80216 10.2262 3.62113 11.1382C3.78395 11.3196 3.84188 11.5624 3.82529 11.7902C3.8087 12.0179 3.73029 12.2431 3.6191 12.4726C3.39679 12.9316 3.03463 13.412 2.64941 13.8619C2.21326 14.3713 1.79395 14.7901 1.46973 15.1002C1.69482 15.0623 1.9311 14.9637 2.17816 14.8075C2.63629 14.5179 3.10173 14.0426 3.4937 13.5169C3.88566 12.9912 4.20641 12.4144 4.39376 11.9361C4.48745 11.6969 4.54726 11.4817 4.5692 11.3198C4.59107 11.158 4.56366 11.0577 4.55813 11.0484C4.07876 10.2443 3.58135 9.42253 3.28666 8.57612C2.99198 7.72972 2.90541 6.83972 3.28438 5.97144C4.0726 4.1655 5.72251 3.31253 7.37101 3.17128C9.01507 3.0304 10.6824 3.55865 11.638 4.56847L12.3659 5.27078L14.5301 3.97484C13.8945 3.15253 12.796 2.24578 11.5226 1.59181C10.4743 1.0535 9.31316 0.686248 8.20448 0.640936C8.11206 0.637144 8.02006 0.635644 7.92848 0.636436V0.636373ZM11.638 4.56847L11.6362 4.56665L11.6459 4.57644C11.6433 4.57372 11.6406 4.57112 11.6381 4.56844L11.638 4.56847ZM7.65035 3.71737C7.57317 3.72042 7.49607 3.72518 7.4191 3.73165C7.30779 3.74119 7.19691 3.75447 7.0866 3.77087L7.38748 5.17953C7.56816 5.1283 7.75251 5.09106 7.93891 5.06815L7.65038 3.71734L7.65035 3.71737ZM9.02066 3.83169C8.8686 4.23309 8.7916 4.64156 8.8026 5.05169C8.99116 5.06669 9.18029 5.0934 9.36885 5.13159C9.34173 4.75065 9.40966 4.36815 9.56766 3.97597C9.38797 3.91836 9.20539 3.8702 9.02066 3.83169ZM5.68716 4.20012C5.49616 4.29475 5.31216 4.4045 5.13679 4.52925C5.68523 4.80619 6.06491 5.24059 6.22163 5.76656C6.37439 5.64792 6.53712 5.5427 6.70801 5.45209C6.5167 4.94406 6.1587 4.5119 5.68716 4.20012ZM8.44141 5.6C8.40529 5.59994 8.36928 5.60042 8.33338 5.60147C8.24976 5.60382 8.16692 5.60905 8.08488 5.61715C6.7726 5.74765 5.66895 6.56272 5.35129 8.43184C5.2826 8.83622 5.48545 9.77003 5.73398 10.5462C5.98248 11.3223 6.25379 11.9686 6.25379 11.9686L6.26954 12.0061L6.27401 12.0465C6.33526 12.5997 5.98932 13.1392 5.61113 13.6797C5.36001 14.0386 5.0977 14.3704 4.86207 14.6709C5.61207 14.6287 6.29841 14.2964 6.96135 13.7038C6.95748 13.6882 6.95604 13.6816 6.95157 13.6633C6.92451 13.551 6.89048 13.3915 6.89885 13.2045C6.91279 12.8926 7.07616 12.5183 7.48691 12.2087C6.71888 11.1143 6.58385 9.7475 6.73504 8.61406L6.76273 8.40625L6.96979 8.37344C8.80463 8.08312 10.0087 7.47312 11.3242 6.6674C10.4627 5.98365 9.41173 5.60131 8.44135 5.59997L8.44141 5.6ZM12.1976 6.7825C10.6843 7.73615 9.33632 8.52219 7.27395 8.88719C7.17229 9.93119 7.34979 11.1322 8.06226 12.0371C8.45623 12.0562 8.78926 12.2552 8.99676 12.5429C9.2076 12.8352 9.30757 13.2042 9.3352 13.5937C10.0629 14.2633 11.303 14.8132 12.3903 15.3642C12.2913 14.1316 12.3811 12.9786 11.936 11.7983L9.9722 11.0077L9.97026 11.0068C9.52298 10.8187 9.24113 10.5758 9.14176 10.2559C9.04238 9.936 9.11445 9.63194 9.17888 9.28512L9.24763 8.91475L9.58326 9.08587C10.3147 9.459 11.1893 9.72712 12.0066 9.7129L12.2123 9.70928L12.278 9.90422C12.6091 10.8866 12.6815 11.6733 12.7703 12.4731L13.0136 12.5703C13.1426 11.6522 13.0734 10.4239 12.8929 9.30706C12.7222 8.25028 12.4329 7.27487 12.1976 6.78244V6.7825ZM6.98107 13.7861C6.98076 13.7999 6.98401 13.8003 6.98138 13.7873C6.98132 13.7871 6.98107 13.7863 6.98107 13.7861Z" fill="white"/>
</svg>
