<svg width="16" height="16" viewBox="0 0 16 16" fill="none" xmlns="http://www.w3.org/2000/svg">
<g clip-path="url(#clip0_85_560)">
<path d="M8.24412 0.581148C6.66952 0.979586 5.72255 2.6538 6.65621 4.05677C7.35862 5.11218 8.06143 5.96824 6.92965 6.5274C6.19987 6.88802 5.3663 6.01321 5.48824 4.9874C5.63862 3.72224 4.90371 2.48968 4.04683 2.23152C5.49174 5.55715 2.68871 7.76271 3.28027 4.64071C2.33384 5.14368 2.25577 6.48499 2.92871 8.47571C1.66708 7.93821 1.20777 6.38924 1.7324 4.70809C0.611585 5.59402 0.0667725 8.79884 1.27533 10.4415C4.26324 14.5026 7.75483 15.5108 8.37496 15.5108C9.03571 15.5108 12.0416 14.4572 14.2998 11.9131C15.6055 10.4421 15.8912 6.63502 14.5879 4.29884C14.7748 5.09055 14.3967 6.6984 13.5302 7.23734C13.6864 5.4319 13.408 2.83284 12.3837 1.87702C13.4031 7.27709 9.47712 6.63334 10.872 4.98734C11.7942 3.89905 10.8667 1.78421 10.3251 1.47562C10.6656 2.79187 9.88012 3.65299 8.61512 3.39549C7.76349 3.22215 7.2169 1.99059 8.24409 0.581055L8.24412 0.581148ZM4.64546 7.18959H5.22946V12.3516L8.43946 14.0958L11.6493 12.3516V7.19052H12.2334V12.6993L12.08 12.7823L8.57808 14.6837L8.4394 14.7599L8.29977 14.6837L4.79777 12.7823L4.64546 12.6993V7.18952V7.18959ZM5.81827 7.19637L8.11618 8.58799V13.2228L5.81827 11.9278V7.19634V7.19637ZM11.0595 7.19637V11.9278L8.70015 13.2579V8.62602L11.0595 7.19634V7.19637Z" fill="white"/>
</g>
<defs>
<clipPath id="clip0_85_560">
<rect width="16" height="16" fill="white"/>
</clipPath>
</defs>
</svg>
