<svg width="16" height="16" viewBox="0 0 16 16" fill="none" xmlns="http://www.w3.org/2000/svg">
<path d="M3.3991 8.00177C3.40804 9.76943 3.83607 11.1839 4.17854 12.1763C2.67357 9.92974 0.965446 5.8683 3.76545 3.50455C2.43545 3.36986 0.878758 4.31067 0.772321 5.72996H0.766383C0.733008 6.16908 0.847008 6.65983 1.13345 7.17161C0.509571 8.89933 0.478883 10.8033 1.54982 13.5435C2.1492 15.0762 3.76401 15.5029 5.32332 15.2291C6.45913 15.0291 7.51676 14.5208 8.23876 13.3618C9.4937 11.3468 10.1134 10.0675 11.4197 9.12992C12.8736 8.51189 14.4678 9.02836 15.2909 9.83161C15.0573 8.03318 13.0911 6.34693 11.5264 8.05777C10.235 8.29714 9.36938 8.60527 7.9101 9.65886C8.52416 8.44767 9.67032 7.00533 10.3829 6.14589C11.4358 4.84564 13.5971 4.37027 14.7118 4.64258C13.7121 3.22571 10.7144 2.78039 10.0363 5.03414C8.72357 5.63611 7.07079 6.93571 5.9767 8.2528C6.33857 6.60442 7.01357 4.57199 7.67504 3.40255C8.73207 2.26027 10.2929 2.27967 11.257 2.57242C10.3538 1.1163 7.46813 0.381175 6.92904 2.97846C5.58185 4.01221 4.20254 6.10689 3.39916 8.00183L3.3991 8.00177Z" fill="white"/>
</svg>
