<svg width="16" height="16" viewBox="0 0 16 16" fill="none" xmlns="http://www.w3.org/2000/svg">
<g clip-path="url(#clip0_84_550)">
<path d="M9.30263 0.658289C8.81407 0.66257 8.31863 0.785601 7.8446 1.04401C8.93826 0.96457 9.89966 1.2997 10.1679 2.10457C6.14101 1.57795 2.03507 5.64645 9.17663 9.76666C11.1143 10.8846 9.78226 13.7603 5.91694 12.1134C0.765319 9.91851 1.13957 5.83945 2.99501 3.70513C3.22382 4.09038 3.41432 4.52369 3.58676 4.97857C4.1826 3.45998 5.34888 2.8342 6.5116 2.2032C4.88044 1.43507 3.32379 1.74123 1.79579 2.46588C2.1196 2.64538 2.39279 2.88785 2.62876 3.17588C-0.91993 5.29823 0.19835 11.9384 4.86019 14.6299C10.7931 18.0553 17.8223 10.4975 11.3651 8.03426C6.63266 6.22894 7.87432 3.66223 10.1767 4.09188L10.2587 5.42391L14.6757 6.65438L15.329 4.75885C14.4246 4.36782 13.6975 3.92832 13.1074 3.38876C13.147 2.50613 12.7743 1.62298 12.0478 0.74032C12.0714 1.17135 12.0666 1.60226 11.998 2.03332C11.304 1.1557 10.3189 0.649352 9.30273 0.65832L9.30263 0.658289ZM10.66 2.70123C11.3788 2.92835 12.0576 3.35329 12.5975 4.07916C11.5435 4.57354 10.4374 3.91291 10.66 2.70126V2.70123Z" fill="white"/>
</g>
<defs>
<clipPath id="clip0_84_550">
<rect width="16" height="16" fill="white"/>
</clipPath>
</defs>
</svg>
