<svg width="16" height="16" viewBox="0 0 16 16" fill="none" xmlns="http://www.w3.org/2000/svg">
<g clip-path="url(#clip0_84_544)">
<path d="M15.8002 0.500025L15.7002 0.300025L15.5002 0.200025C15.4002 0.200025 13.0002 -0.599975 11.3002 1.10003L4.6002 7.70003C3.7002 7.10003 2.9002 6.50003 2.8002 6.70003L2.4002 7.00003C2.2002 7.20003 3.3002 8.70003 4.2002 9.70003L1.7002 13.1C1.4002 12.8 0.900195 12.8 0.600195 13.1L0.300195 13.4C0.00019531 13.7 0.00019531 14.2 0.300195 14.5L1.3002 15.5C1.6002 15.8 2.1002 15.8 2.4002 15.5L2.7002 15.2C3.0002 14.9 3.0002 14.4 2.7002 14.1L6.2002 11.6C7.2002 12.5 8.7002 13.6 8.9002 13.4L9.3002 13C9.4002 12.9 8.9002 12 8.2002 11.2L14.9002 4.50003C16.6002 3.00003 15.8002 0.600025 15.8002 0.500025ZM7.7002 10.5L6.9002 9.70003L13.1002 2.80003L6.2002 9.00003L5.5002 8.30003L12.0002 1.80003C13.0002 0.800025 14.3002 1.00003 14.9002 1.10003C15.0002 1.70003 15.2002 3.00003 14.2002 3.90003L7.7002 10.5Z" fill="white"/>
</g>
<defs>
<clipPath id="clip0_84_544">
<rect width="16" height="16" fill="white"/>
</clipPath>
</defs>
</svg>
